<svg id="Grupo_46036" data-name="Grupo 46036" xmlns="http://www.w3.org/2000/svg" xmlns:xlink="http://www.w3.org/1999/xlink" width="342.213" height="266.471" viewBox="0 0 342.213 266.471">
  <defs>
    <clipPath id="clip-path">
      <path id="Trazado_30059" data-name="Trazado 30059" d="M204.07,453.319c-31.791,0-63.573-4.6-90.424-13.776,39.1,29.085,141.746,29.085,180.847,0C267.638,448.724,235.856,453.319,204.07,453.319Zm-152.023-59c-17.939-10.8-12.126-58.62,9.4-63.163C29.724,332.9,21.566,384.31,52.047,394.318Zm304.042,0c30.476-10.008,22.326-61.416-9.4-63.163C368.21,335.7,374.023,383.518,356.088,394.318ZM189.8,281.249a121.786,121.786,0,0,0-31.709,7.635q-4.571,1.734-9.1,3.833c-12.058,5.6-31.457,17.3-39.457,28.16-1.053,1.464-2.162,2.968-3.146,4.629s-2.123,3.289-3.086,5.092c-.98,1.794-1.978,3.627-2.906,5.554-.89,1.948-1.815,3.922-2.654,5.978-.788,2.081-1.635,4.171-2.35,6.342-.663,2.2-1.43,4.377-2.008,6.646-.535,2.287-1.173,4.543-1.627,6.873-.4,2.347-.907,4.659-1.2,7.031s-.646,4.719-.792,7.1a127.351,127.351,0,0,0-.377,14.063c.124,2.308.141,4.561.372,6.792s.467,4.4.689,6.522c.33,2.141.616,4.218.955,6.222s.8,3.85,1.177,5.674a101.781,101.781,0,0,0,2.594,9.986c.869,2.95,1.793,5.486,2.564,7.566,1.562,4.158,2.658,6.466,2.658,6.466s-.441-2.424-1.211-6.667c-.372-2.107-.758-4.672-1.19-7.592-.394-2.916-.83-6.226-1.113-9.759-.141-1.8-.377-3.721-.458-5.623s-.214-3.85-.33-5.85q-.045-3.019-.086-6.188c0-2.1.086-4.235.12-6.411s.253-4.346.36-6.565.445-4.411.629-6.655c.526-4.445,1.22-8.907,2.119-13.3.411-2.21.989-4.355,1.477-6.526.548-2.15,1.177-4.252,1.746-6.359.633-2.081,1.353-4.1,1.986-6.141.7-2.008,1.5-3.927,2.192-5.875,1.562-3.79,3.108-7.451,4.786-10.8.33-.737.689-1.439,1.057-2.124,21.03-22.6,53.334-34.335,86.828-35.2l4.768.03,4.764-.03c33.5.869,65.8,12.6,86.832,35.2.368.685.732,1.387,1.057,2.124,1.682,3.344,3.223,7.006,4.785,10.8.7,1.948,1.494,3.867,2.192,5.875.633,2.038,1.353,4.06,1.986,6.141.569,2.111,1.2,4.214,1.742,6.359.484,2.171,1.062,4.316,1.477,6.526.9,4.389,1.592,8.851,2.119,13.3.184,2.244.522,4.432.625,6.655s.321,4.393.36,6.565.116,4.308.12,6.411q-.045,3.167-.086,6.188c-.116,2-.253,3.957-.33,5.85s-.317,3.824-.458,5.623c-.283,3.533-.719,6.843-1.113,9.759-.428,2.92-.818,5.485-1.186,7.592-.775,4.24-1.211,6.667-1.211,6.667s1.1-2.308,2.658-6.466c.766-2.077,1.691-4.616,2.564-7.566a101.442,101.442,0,0,0,2.594-9.986c.372-1.82.835-3.67,1.177-5.674s.625-4.081.955-6.222c.223-2.12.454-4.3.689-6.522s.244-4.483.372-6.792a129.527,129.527,0,0,0-.377-14.063c-.15-2.377-.509-4.723-.8-7.1s-.809-4.685-1.2-7.031c-.454-2.33-1.087-4.586-1.622-6.873-.578-2.27-1.34-4.445-2-6.646-.719-2.171-1.562-4.265-2.354-6.342-.839-2.056-1.768-4.03-2.654-5.978-.929-1.927-1.926-3.764-2.9-5.554s-2.093-3.434-3.09-5.092-2.093-3.165-3.146-4.629c-8-10.86-27.4-22.563-39.457-28.16q-4.527-2.1-9.1-3.833a121.612,121.612,0,0,0-31.709-7.635c-4.259-.433-8.865-.651-13.47-.651-.265,0-.531,0-.8,0s-.531,0-.8,0C198.663,280.6,194.062,280.817,189.8,281.249Zm14.819-56.979h-1.1c-26.59,0-52.991,7.019-78.383,23.993-28.978,19.373-51.617,48.586-63.65,82.887h-.009c-.009,0-.017,0-.03,0h.034a170.016,170.016,0,0,0-9.417,63.167s-.009,0-.013,0a0,0,0,0,1,0,0l.009,0a177.467,177.467,0,0,0,7.842,45.315A168.514,168.514,0,0,0,84.882,489.47a3.07,3.07,0,0,0,2.453,1.272h87.924l-84.491-10.3c-1.288-.154-11.84-18.979-13.008-21.146-11.052-20.456-16.925-42.664-19.146-63.12-3.317-30.592,3.891-62.016,22-93.571,29.976-35.881,76.722-50.745,123.455-50.728,46.733-.017,93.48,14.851,123.455,50.728,18.1,31.556,25.314,62.983,21.993,93.571-2.221,20.456-8.09,42.664-19.142,63.12-1.169,2.167-11.72,20.987-13.008,21.146l-84.491,10.3H320.8a3.07,3.07,0,0,0,2.453-1.272,168.412,168.412,0,0,0,24.976-49.828,177.836,177.836,0,0,0,7.842-45.315l.009,0s0,0,0,0a.016.016,0,0,0-.013,0,169.841,169.841,0,0,0-9.417-63.167h.038c-.009,0-.021,0-.03,0h-.009c-12.032-34.3-34.676-63.514-63.654-82.887C257.617,231.289,231.212,224.27,204.622,224.27Z" transform="translate(-32.961 -224.27)" fill="#fff"/>
    </clipPath>
  </defs>
  <g id="Grupo_46035" data-name="Grupo 46035" clip-path="url(#clip-path)">
    <rect id="Rectángulo_17422" data-name="Rectángulo 17422" width="364.994" height="266.471" transform="translate(-11.395 0)" fill="#fff"/>
  </g>
</svg>
